<svg xmlns="http://www.w3.org/2000/svg" data-name="Layer 1" viewBox="0 0 64 64"><path d="M18.14209,19.80371a.5.5,0,0,0,.4873.38965.47268.47268,0,0,0,.11036-.0127.49988.49988,0,0,0,.37793-.59765l-.43995-1.94922a.50012.50012,0,0,0-.97558.2207Zm-2.34277,4.11035,1,1a.49963.49963,0,0,0,.35351.14649h1.66651a.49972.49972,0,0,0,.5-.5v-2a.49972.49972,0,0,0-.5-.5H17.15283a.49962.49962,0,0,0-.35351.14648l-1,1A.4998.4998,0,0,0,15.79932,23.91406Zm1.56054-.85351h.95948v1h-.95948l-.5-.5Zm-2.18652,1.47558a.51589.51589,0,0,0-.708,0l-1,1.002a.50122.50122,0,0,0-.146.35351v1.66895a.49972.49972,0,0,0,.5.5h2a.49972.49972,0,0,0,.5-.5V25.8916a.50123.50123,0,0,0-.146-.35351Zm.146,2.52442h-1v-.96192l.5-.501.5.501Zm-.854-4.47461a.501.501,0,0,0,.708,0l1-1.002a.50123.50123,0,0,0,.146-.35351V19.56055a.49972.49972,0,0,0-.5-.5h-2a.49971.49971,0,0,0-.5.5v1.66992a.50122.50122,0,0,0,.146.35351Zm-.146-2.52539h1v.96289l-.5.501-.5-.501Zm-3.5,5h1.667a.49963.49963,0,0,0,.35351-.14649l1-1a.4998.4998,0,0,0,0-.707l-1-1a.49962.49962,0,0,0-.35351-.14648h-1.667a.49971.49971,0,0,0-.5.5v2A.49972.49972,0,0,0,10.81934,25.06055Zm.5-2h.96l.5.5-.5.5h-.96ZM49,25.81348a1.75,1.75,0,1,0,1.75,1.75A1.75212,1.75212,0,0,0,49,25.81348Zm0,2.5a.75.75,0,1,1,.75-.75A.75145.75145,0,0,1,49,28.31348Zm-26.5.40039a3.5,3.5,0,1,0,3.5,3.5A3.50424,3.50424,0,0,0,22.5,28.71387Zm0,6a2.5,2.5,0,1,1,2.5-2.5A2.50263,2.50263,0,0,1,22.5,34.71387ZM49,22.31348a1.75,1.75,0,1,0-1.75-1.75A1.75213,1.75213,0,0,0,49,22.31348Zm0-2.5a.75.75,0,1,1-.75.75A.75144.75144,0,0,1,49,19.81348Zm-7.5,8.90039a3.5,3.5,0,1,0,3.5,3.5A3.50424,3.50424,0,0,0,41.5,28.71387Zm0,6a2.5,2.5,0,1,1,2.5-2.5A2.50232,2.50232,0,0,1,41.5,34.71387ZM56.31445,21.6582,54.668,17.40527a1.50671,1.50671,0,0,0-1.12988-.93359L53,16.37372V15.06348a.50108.50108,0,0,0-.27637-.44727l-.27929-.13965a9.792,9.792,0,0,0-6.02637-.90625.50012.50012,0,0,0-.418.49317v1.20825q-2.58453-.33133-5.17462-.53662-1.33064-.10629-2.66449-.18061-1.2725-.07149-2.54535-.11206-1.09781-.0357-2.19617-.04956-1.41915-.0183-2.83795,0-1.09946.014-2.198.04956-1.27156.04194-2.54217.11194-1.33521.07416-2.66675.18073-2.58984.20865-5.1745.53674V14.06348a.50012.50012,0,0,0-.418-.49317,9.781,9.781,0,0,0-6.02539.90625l-.27978.13965A.49975.49975,0,0,0,11,15.06348V16.3739l-.53711.09778a1.50648,1.50648,0,0,0-1.13135.93359L7.68506,21.6582A61.83963,61.83963,0,0,0,3.5,44.06348a6.45594,6.45594,0,0,0,4.00031,5.9906l.00439.00219a6.42773,6.42773,0,0,0,2.48407.50721,6.59845,6.59845,0,0,0,.67773-.03418,2.43976,2.43976,0,0,0,2.169-1.9541,26.48758,26.48758,0,0,1,3.95166-9.541l.23828-.35742a2.49514,2.49514,0,0,1,2.08008-1.11328h1.0376a5.80526,5.80526,0,0,0,4.71392,0H39.14313a5.80484,5.80484,0,0,0,4.71374,0h1.03766a2.49577,2.49577,0,0,1,2.08008,1.11328l.44824.67187a24.60781,24.60781,0,0,1,3.668,8.85645,2.95633,2.95633,0,0,0,2.8916,2.3584H54a6.5,6.5,0,0,0,6.5-6.5A61.81818,61.81818,0,0,0,56.31445,21.6582ZM47,14.49707a8.79269,8.79269,0,0,1,4.99707.874L52,16.19171l-.23242-.0423c-.17157-.03118-.34393-.05151-.51563-.08191q-1.29043-.22155-2.62481-.41687c-.54261-.08276-1.084-.18383-1.62714-.25848Zm-5.375,1.30176-1.48926,7.62109a1.5002,1.5002,0,0,1-1.47168,1.21192H25.33545a1.50271,1.50271,0,0,1-1.47217-1.21192L22.375,15.79883A109.62865,109.62865,0,0,1,41.625,15.79883ZM12,15.37305l.00342-.002A8.796,8.796,0,0,1,17,14.49707v.8952c-.53967.07422-1.07764.17462-1.61682.25684q-1.35022.198-2.65595.42187c-.16442.02912-.32946.04853-.49383.07843L12,16.19189ZM7.73669,49.07855A5.50834,5.50834,0,0,1,4.5,44.06348,60.83294,60.83294,0,0,1,8.61768,22.01953l1.64648-4.25293a.49987.49987,0,0,1,.37646-.31055l1.319-.23992c.39026-.07081.79841-.13318,1.19648-.20057.76751-.13427,1.53631-.24865,2.30493-.36639.69665-.1026,1.39331-.20569,2.10248-.29663a.48706.48706,0,0,0,.12152-.039c.54071-.0716,1.08258-.12036,1.62372-.18384L20.772,22.59375a4.4736,4.4736,0,0,1-1.19531,4.17676c-.4939.49377-.9657,1.0133-1.42621,1.54492-.09363.10443-.184.21136-.27.32233a29.88381,29.88381,0,0,0-5.565,9.88763l-2.8501,8.56152A3.48519,3.48519,0,0,1,7.73669,49.07855Zm8.45667-10.95648-.23828.35742a27.48233,27.48233,0,0,0-4.1001,9.90039,1.44751,1.44751,0,0,1-1.2876,1.15528,5.69494,5.69494,0,0,1-1.60125-.07465,4.47059,4.47059,0,0,0,1.44842-2.05817l2.84961-8.55957a29.22728,29.22728,0,0,1,2.85107-6.08593c.17566-.284.365-.55726.54944-.83435-.00482.09716-.01477.19305-.01477.29138a5.83236,5.83236,0,0,0,2.01258,4.40448A3.4735,3.4735,0,0,0,16.19336,38.12207Zm8.32513-1.51233a4.73217,4.73217,0,0,1-4.037,0,4.85012,4.85012,0,1,1,4.037,0Zm1.8794-.04626a5.83589,5.83589,0,0,0-5.38764-10.00061,5.47435,5.47435,0,0,0,.73731-4.18982l-1.43891-6.35657c.35566-.03839.71088-.08588,1.06672-.12079l1.50647,7.71564a2.50484,2.50484,0,0,0,2.45361,2.02051H38.66406a2.50377,2.50377,0,0,0,2.4541-2.02051l1.5069-7.71521c.35577.03485.711.08233,1.06665.12073l-1.43878,6.3562a5.47272,5.47272,0,0,0,.73755,4.19,5.83929,5.83929,0,0,0-5.38812,10.00043Zm17.11828.04736a4.73541,4.73541,0,0,1-4.03222.00006,4.84963,4.84963,0,1,1,4.03222-.00006ZM54,49.56348h-.01562a1.95325,1.95325,0,0,1-1.91309-1.55371A25.57784,25.57784,0,0,0,48.25488,38.794l-.44824-.67188a3.47631,3.47631,0,0,0-2.46936-1.50372,5.83258,5.83258,0,0,0,2.01233-4.40448c0-.0987-.00995-.19489-.01483-.29236.18469.2774.3742.551.55.83533a29.18908,29.18908,0,0,1,2.85058,6.085L53.585,47.40137a4.46981,4.46981,0,0,0,1.45117,2.06109A5.55048,5.55048,0,0,1,54,49.56348ZM57.88379,47.958a5.48365,5.48365,0,0,1-1.63428,1.11249,3.48732,3.48732,0,0,1-1.71533-1.98456l-2.84961-8.56055a29.896,29.896,0,0,0-5.57092-9.89514c-.08191-.10523-.16773-.20679-.25647-.30615-.46271-.53455-.93683-1.05707-1.43335-1.55359a4.47778,4.47778,0,0,1-1.19629-4.17676l1.46319-6.46381c.54181.06354,1.08429.11243,1.62562.18409a.48716.48716,0,0,0,.12017.03851c.70557.09045,1.39893.19318,2.09235.29523.77185.1181,1.54388.233,2.31445.36773.40125.06794.81287.1308,1.20606.20221l1.311.23834a.50156.50156,0,0,1,.376.31055l1.64648,4.25293A60.84161,60.84161,0,0,1,59.5,44.06348,5.46614,5.46614,0,0,1,57.88379,47.958ZM34.5,26.56366a.5.5,0,1,0,.5.5A.5.5,0,0,0,34.5,26.56366Zm11-4.25018a1.75,1.75,0,1,0,1.75,1.75A1.75212,1.75212,0,0,0,45.5,22.31348Zm0,2.5a.75.75,0,1,1,.75-.75A.75145.75145,0,0,1,45.5,24.81348Zm7-2.5a1.75,1.75,0,1,0,1.75,1.75A1.75212,1.75212,0,0,0,52.5,22.31348Zm0,2.5a.75.75,0,1,1,.75-.75A.75145.75145,0,0,1,52.5,24.81348Zm-7.24023-4.63282a.47858.47858,0,0,0,.11035.0127.49843.49843,0,0,0,.4873-.38965l.43946-1.94922a.49964.49964,0,0,0-.97461-.2207L44.88281,19.583A.49925.49925,0,0,0,45.25977,20.18066ZM30.5,27.56366a.5.5,0,1,0-.5-.5A.5.5,0,0,0,30.5,27.56366Zm3,.5a.5.5,0,1,0,.5.5A.5.5,0,0,0,33.5,28.06366Zm-1-.5a.5.5,0,1,0-.5-.5A.5.5,0,0,0,32.5,27.56366Zm-1,1.5a.5.5,0,1,0-.5-.5A.5.5,0,0,0,31.5,29.06366Zm-3-2.5a.5.5,0,1,0,.5.5A.5.5,0,0,0,28.5,26.56366Zm4,7.99982h-2a.5.5,0,0,0,0,1h2a.5.5,0,0,0,0-1Zm-3-6.49982a.5.5,0,1,0,.5.5A.5.5,0,0,0,29.5,28.06366Z"/></svg>