<?xml version="1.0" encoding="UTF-8" standalone="no"?>
<svg
   xmlns:dc="http://purl.org/dc/elements/1.1/"
   xmlns:cc="http://creativecommons.org/ns#"
   xmlns:rdf="http://www.w3.org/1999/02/22-rdf-syntax-ns#"
   xmlns:svg="http://www.w3.org/2000/svg"
   xmlns="http://www.w3.org/2000/svg"
   xmlns:sodipodi="http://sodipodi.sourceforge.net/DTD/sodipodi-0.dtd"
   xmlns:inkscape="http://www.inkscape.org/namespaces/inkscape"
   width="1.4248333in"
   height="1.1356666in"
   viewBox="0 0 427.44998 340.69999"
   version="1.1"
   id="svg12"
   sodipodi:docname="Logo.svg"
   inkscape:version="0.92.5 (2060ec1f9f, 2020-04-08)">
  <metadata
     id="metadata18">
    <rdf:RDF>
      <cc:Work
         rdf:about="">
        <dc:format>image/svg+xml</dc:format>
        <dc:type
           rdf:resource="http://purl.org/dc/dcmitype/StillImage" />
      </cc:Work>
    </rdf:RDF>
  </metadata>
  <defs
     id="defs16" />
  <sodipodi:namedview
     pagecolor="#ffffff"
     bordercolor="#666666"
     borderopacity="1"
     objecttolerance="10"
     gridtolerance="10"
     guidetolerance="10"
     inkscape:pageopacity="0"
     inkscape:pageshadow="2"
     inkscape:window-width="1600"
     inkscape:window-height="829"
     id="namedview14"
     showgrid="false"
     inkscape:zoom="2.4153645"
     inkscape:cx="134.3952"
     inkscape:cy="67.562708"
     inkscape:window-x="0"
     inkscape:window-y="0"
     inkscape:window-maximized="1"
     inkscape:current-layer="layer1" />
  <path
     id="Chemin #9"
     d="m 148.8,254.2 c 0,0 0,-119.78 0,-119.78 C 148.8,134.42 0,0.5 0,0.5 c 0,0 76.27,0 76.27,0 0,0 102.3,90.39 102.3,90.39 0,0 104.15,-90.39 104.15,-90.39 0,0 72.18,0 72.18,0 0,0 -149.55,134.65 -149.55,134.65 0,0 0,119.05 0,119.05 0,0 -56.55,0 -56.55,0 z"
     style="fill:#ffa052;fill-opacity:0.99613899;stroke:none;stroke-width:1"
     inkscape:connector-curvature="0" />
  <path
     id="Chemin #8"
     d="m 164.8,254.2 c 0,0 0,-119.78 0,-119.78 C 164.8,134.42 16,0.5 16,0.5 c 0,0 76.27,0 76.27,0 0,0 102.3,90.39 102.3,90.39 0,0 104.15,-90.39 104.15,-90.39 0,0 72.18,0 72.18,0 0,0 -149.55,134.65 -149.55,134.65 0,0 0,119.05 0,119.05 0,0 -56.55,0 -56.55,0 z"
     style="fill:#d879db;fill-opacity:0.98841696;stroke:none;stroke-width:1"
     inkscape:connector-curvature="0" />
  <path
     id="Chemin #7"
     d="m 181.8,254.2 c 0,0 0,-119.78 0,-119.78 C 181.8,134.42 33,0.5 33,0.5 c 0,0 76.27,0 76.27,0 0,0 102.3,90.39 102.3,90.39 0,0 104.15,-90.39 104.15,-90.39 0,0 72.18,0 72.18,0 0,0 -149.55,134.65 -149.55,134.65 0,0 0,119.05 0,119.05 0,0 -56.55,0 -56.55,0 z"
     style="fill:#b4db9a;fill-opacity:1;stroke:none;stroke-width:1"
     inkscape:connector-curvature="0" />
  <path
     id="Chemin #6"
     d="m 200.8,254.2 c 0,0 0,-119.78 0,-119.78 C 200.8,134.42 52,0.5 52,0.5 c 0,0 76.27,0 76.27,0 0,0 102.3,90.39 102.3,90.39 0,0 104.15,-90.39 104.15,-90.39 0,0 72.18,0 72.18,0 0,0 -149.55,134.65 -149.55,134.65 0,0 0,119.05 0,119.05 0,0 -56.55,0 -56.55,0 z"
     style="fill:#b4db9a;fill-opacity:1;stroke:#b4db9a;stroke-width:1;stroke-opacity:0"
     inkscape:connector-curvature="0" />
  <path
     id="Chemin #5"
     d="m 200.8,254.2 c 0,0 0,-119.78 0,-119.78 C 200.8,134.42 52,0.5 52,0.5 c 0,0 76.27,0 76.27,0 0,0 102.3,90.39 102.3,90.39 0,0 104.15,-90.39 104.15,-90.39 0,0 72.18,0 72.18,0 0,0 -149.55,134.65 -149.55,134.65 0,0 0,119.05 0,119.05 0,0 -56.55,0 -56.55,0 z"
     inkscape:connector-curvature="0"
     style="fill:#db848a;fill-opacity:1;stroke:none;stroke-width:1;stroke-opacity:0.08494209" />
  <path
     id="Chemin #4"
     d="m 292.71,340.2 c -8.16,0 -14.96,-0.68 -20.39,-2.03 -5.43,-1.35 -9.78,-3.52 -13.03,-6.5 -3.27,-2.99 -5.58,-6.9 -6.94,-11.72 -1.36,-4.83 -2.03,-10.77 -2.03,-17.83 0,0 0,-34.84 0,-34.84 0,-6.94 0.67,-12.85 2.03,-17.74 1.36,-4.88 3.67,-8.81 6.94,-11.79 3.25,-2.99 7.6,-5.16 13.03,-6.52 5.43,-1.35 12.23,-2.03 20.39,-2.03 0,0 27.37,0 27.37,0 0,0 0,20.62 0,20.62 0,0 -27.37,0 -27.37,0 -3.6,0 -6.53,0.31 -8.81,0.93 -2.29,0.61 -4.11,1.59 -5.47,2.93 -1.36,1.35 -2.28,3.14 -2.77,5.4 -0.48,2.24 -0.72,5.03 -0.72,8.39 0,0 0,7.73 0,7.73 0,0 94.7,0 94.7,0 0,0 0,20 0,20 0,0 -94.7,0 -94.7,0 0,0 0,7.7 0,7.7 0,3.32 0.24,6.04 0.72,8.18 0.49,2.13 1.38,3.85 2.69,5.14 1.31,1.28 3.13,2.16 5.47,2.64 2.33,0.48 5.29,0.72 8.89,0.72 0,0 77.58,0 77.58,0 0,0 0,20.62 0,20.62 0,0 -77.58,0 -77.58,0 z"
     style="fill:#ffa052;fill-opacity:1;stroke:none;stroke-width:1"
     inkscape:connector-curvature="0" />
  <path
     id="Chemin #3"
     d="m 283.71,340.2 c -8.16,0 -14.96,-0.68 -20.39,-2.03 -5.43,-1.35 -9.78,-3.52 -13.03,-6.5 -3.27,-2.99 -5.58,-6.9 -6.94,-11.72 -1.36,-4.83 -2.03,-10.77 -2.03,-17.83 0,0 0,-34.84 0,-34.84 0,-6.94 0.67,-12.85 2.03,-17.74 1.36,-4.88 3.67,-8.81 6.94,-11.79 3.25,-2.99 7.6,-5.16 13.03,-6.52 5.43,-1.35 12.23,-2.03 20.39,-2.03 0,0 27.37,0 27.37,0 0,0 0,20.62 0,20.62 0,0 -27.37,0 -27.37,0 -3.6,0 -6.53,0.31 -8.81,0.93 -2.29,0.61 -4.11,1.59 -5.47,2.93 -1.36,1.35 -2.28,3.14 -2.77,5.4 -0.48,2.24 -0.72,5.03 -0.72,8.39 0,0 0,7.73 0,7.73 0,0 94.7,0 94.7,0 0,0 0,20 0,20 0,0 -94.7,0 -94.7,0 0,0 0,7.7 0,7.7 0,3.32 0.24,6.04 0.72,8.18 0.49,2.13 1.38,3.85 2.69,5.14 1.31,1.28 3.13,2.16 5.47,2.64 2.33,0.48 5.29,0.72 8.89,0.72 0,0 77.58,0 77.58,0 0,0 0,20.62 0,20.62 0,0 -77.58,0 -77.58,0 z"
     style="fill:#d879db;fill-opacity:1;stroke:none;stroke-width:1"
     inkscape:connector-curvature="0" />
  <path
     id="Chemin #2"
     d="m 273.71,340.2 c -8.16,0 -14.96,-0.68 -20.39,-2.03 -5.43,-1.35 -9.78,-3.52 -13.03,-6.5 -3.27,-2.99 -5.58,-6.9 -6.94,-11.72 -1.36,-4.83 -2.03,-10.77 -2.03,-17.83 0,0 0,-34.84 0,-34.84 0,-6.94 0.67,-12.85 2.03,-17.74 1.36,-4.88 3.67,-8.81 6.94,-11.79 3.25,-2.99 7.6,-5.16 13.03,-6.52 5.43,-1.35 12.23,-2.03 20.39,-2.03 0,0 27.37,0 27.37,0 0,0 0,20.62 0,20.62 0,0 -27.37,0 -27.37,0 -3.6,0 -6.53,0.31 -8.81,0.93 -2.29,0.61 -4.11,1.59 -5.47,2.93 -1.36,1.35 -2.28,3.14 -2.77,5.4 -0.48,2.24 -0.72,5.03 -0.72,8.39 0,0 0,7.73 0,7.73 0,0 94.7,0 94.7,0 0,0 0,20 0,20 0,0 -94.7,0 -94.7,0 0,0 0,7.7 0,7.7 0,3.32 0.24,6.04 0.72,8.18 0.49,2.13 1.38,3.85 2.69,5.14 1.31,1.28 3.13,2.16 5.47,2.64 2.33,0.48 5.29,0.72 8.89,0.72 0,0 77.58,0 77.58,0 0,0 0,20.62 0,20.62 0,0 -77.58,0 -77.58,0 z"
     style="fill:#b4db9a;fill-opacity:1;stroke:none;stroke-width:1"
     inkscape:connector-curvature="0" />
  <path
     id="Chemin #1"
     d="m 263.71,340.2 c -8.16,0 -14.96,-0.68 -20.39,-2.03 -5.43,-1.35 -9.78,-3.52 -13.03,-6.5 -3.27,-2.99 -5.58,-6.9 -6.94,-11.72 -1.36,-4.83 -2.03,-10.77 -2.03,-17.83 0,0 0,-34.84 0,-34.84 0,-6.94 0.67,-12.85 2.03,-17.74 1.36,-4.88 3.67,-8.81 6.94,-11.79 3.25,-2.99 7.6,-5.16 13.03,-6.52 5.43,-1.35 12.23,-2.03 20.39,-2.03 0,0 27.37,0 27.37,0 0,0 0,20.62 0,20.62 0,0 -27.37,0 -27.37,0 -3.6,0 -6.53,0.31 -8.81,0.93 -2.29,0.61 -4.11,1.59 -5.47,2.93 -1.36,1.35 -2.28,3.14 -2.77,5.4 -0.48,2.24 -0.72,5.03 -0.72,8.39 0,0 0,7.73 0,7.73 0,0 94.7,0 94.7,0 0,0 0,20 0,20 0,0 -94.7,0 -94.7,0 0,0 0,7.7 0,7.7 0,3.32 0.24,6.04 0.72,8.18 0.49,2.13 1.38,3.85 2.69,5.14 1.31,1.28 3.13,2.16 5.47,2.64 2.33,0.48 5.29,0.72 8.89,0.72 0,0 77.58,0 77.58,0 0,0 0,20.62 0,20.62 0,0 -77.58,0 -77.58,0 z"
     style="fill:#db848a;fill-opacity:1;stroke:none;stroke-width:1"
     inkscape:connector-curvature="0" />
  <path
     id="Chemin"
     d="m 251.71,340.2 c -8.16,0 -14.96,-0.68 -20.39,-2.03 -5.43,-1.35 -9.78,-3.52 -13.03,-6.5 -3.27,-2.99 -5.58,-6.9 -6.94,-11.72 -1.36,-4.83 -2.03,-10.77 -2.03,-17.83 0,0 0,-34.84 0,-34.84 0,-6.94 0.67,-12.85 2.03,-17.74 1.36,-4.88 3.67,-8.81 6.94,-11.79 3.25,-2.99 7.6,-5.16 13.03,-6.52 5.43,-1.35 12.23,-2.03 20.39,-2.03 0,0 27.37,0 27.37,0 0,0 0,20.62 0,20.62 0,0 -27.37,0 -27.37,0 -3.6,0 -6.53,0.31 -8.81,0.93 -2.29,0.61 -4.11,1.59 -5.47,2.93 -1.36,1.35 -2.28,3.14 -2.77,5.4 -0.48,2.24 -0.72,5.03 -0.72,8.39 0,0 0,7.73 0,7.73 0,0 94.7,0 94.7,0 0,0 0,20 0,20 0,0 -94.7,0 -94.7,0 0,0 0,7.7 0,7.7 0,3.32 0.24,6.04 0.72,8.18 0.49,2.13 1.38,3.85 2.69,5.14 1.31,1.28 3.13,2.16 5.47,2.64 2.33,0.48 5.29,0.72 8.89,0.72 0,0 77.58,0 77.58,0 0,0 0,20.62 0,20.62 0,0 -77.58,0 -77.58,0 z"
     style="opacity:0.98999999;fill:#6edbc7;fill-opacity:1;stroke:#000000;stroke-width:1;stroke-opacity:0"
     inkscape:connector-curvature="0" />
  <path
     id="Chemin #5-3"
     d="m 221.35,254.93 c 0,0 0,-119.78 0,-119.78 0,0 -148.8,-133.92 -148.8,-133.92 0,0 76.27,0 76.27,0 0,0 102.3,90.39 102.3,90.39 0,0 104.15,-90.39 104.15,-90.39 0,0 72.17999,0 72.17999,0 0,0 -149.54999,134.65 -149.54999,134.65 0,0 0,119.05 0,119.05 0,0 -56.55,0 -56.55,0 z"
     inkscape:connector-curvature="0"
     style="fill:#6edbc7;fill-opacity:1;stroke:none;stroke-width:1;stroke-opacity:0.08494209" />
  <g
     inkscape:groupmode="layer"
     id="layer1"
     inkscape:label="Layer 1"
     transform="translate(-35.48,-103.8)" />
</svg>
