<svg xmlns="http://www.w3.org/2000/svg" enable-background="new 0 0 64 64" viewBox="0 0 64 64"><path fill="#010101" d="M9,31.7v21.6h3.9V31.7H9z M61.6,61H2.7c-0.8,0-1.4,0.6-1.4,1.3s0.6,1.3,1.4,1.3h58.9c0.8,0,1.4-0.6,1.4-1.3
		C63,61.6,62.3,61,61.6,61z M51.3,31.7v21.6h3.9V31.7H51.3z M49.2,29.6h8.1c0.4,0,0.7-0.3,0.7-0.7v-2.7H6v2.7c0,0.4,0.3,0.7,0.7,0.7
		H15c0.4,0,0.7-0.3,0.7-0.7v-0.5c0-0.6,0.5-1.1,1.1-1.1c0.6,0,1.1,0.5,1.1,1.1v0.5c0,1.6-1.3,2.9-2.8,2.9v21.6
		c1.6,0,2.8,1.3,2.8,2.9v0.5c0,0.6-0.5,1.1-1.1,1.1s-1.1-0.5-1.1-1.1v-0.5c0-0.4-0.3-0.8-0.7-0.8h-1l0,0H7.9l0,0h-1
		c-0.4,0-0.7,0.3-0.7,0.8V59h52v-2.7c0-0.4-0.3-0.8-0.7-0.8h-7.1l0,0h-1c-0.4,0-0.7,0.3-0.7,0.8v0.5c0,0.6-0.5,1.1-1.1,1.1
		s-1.1-0.5-1.1-1.1v-0.5c0-1.6,1.3-2.9,2.8-2.9V31.7c-1.6,0-2.8-1.3-2.8-2.9v-0.5c0-0.6,0.5-1.1,1.1-1.1s1.1,0.5,1.1,1.1v0.5
		C48.5,29.2,48.8,29.6,49.2,29.6z M42.1,55.6c0,0.6-0.5,1.1-1.1,1.1s-1.1-0.5-1.1-1.1v-8.5c0-2.1-0.8-4.1-2.3-5.6s-3.5-2.3-5.6-2.3
		c-4.4,0-8,3.6-8,8v8.5c0,0.6-0.5,1.1-1.1,1.1s-1.1-0.5-1.1-1.1v-8.5c0-5.6,4.5-10.1,10.1-10.1c2.7,0,5.2,1,7.1,3
		c1.9,1.9,3,4.5,3,7.1L42.1,55.6L42.1,55.6z M63.5,22L32.6,0.5c-0.2-0.1-0.4-0.2-0.6-0.2c-0.2,0-0.4,0.1-0.6,0.2L0.5,22
		c-0.6,0.4-0.5,1.1-0.4,1.2c0,0.2,0.3,0.8,1,0.8h61.8c0.8,0,1-0.6,1.1-0.8C64,23.1,64.1,22.4,63.5,22z M32,20.3
		c-3.6,0-6.5-2.9-6.5-6.5s2.9-6.5,6.5-6.5s6.5,2.9,6.5,6.5C38.5,17.3,35.6,20.3,32,20.3z M32,9.3c-2.4,0-4.4,2-4.4,4.4
		s2,4.4,4.4,4.4s4.4-2,4.4-4.4S34.4,9.3,32,9.3z"/></svg>