<svg xmlns="http://www.w3.org/2000/svg" xmlns:xlink="http://www.w3.org/1999/xlink" viewBox="0 0 27.504942 6.6325946">
  <g>
    <g transform="matrix(.28083 0 0 .28083 -137.413315 -6.257648)" fill="#fff">
      <use height="100%" width="100%" xlink:href="#a" x="586.3208" y="480.328"/>
    </g>
    <g transform="matrix(.28083 0 0 .28083 -137.413315 -6.257648)" fill="#fff">
      <use height="100%" width="100%" xlink:href="#a" x="586.29199" y="480.328"/>
    </g>
    <g fill="#0068b0" stroke-width=".2808285">
      <path d="m 118.69847,32.941182 c 0.13274,0 0.24024,-0.107504 0.24024,-0.239143 v -3.502676 c 0,-0.131639 -0.1075,-0.239143 -0.24024,-0.238046 h -4.40659 c -0.0889,0 -0.16016,-0.0713 -0.16016,-0.16016 v -1.273601 c 0,-0.08776 0.0713,-0.159063 0.16016,-0.159063 h 1.28238 c 0.0878,0 0.15906,0.0713 0.15906,0.159063 v 0.398206 c 0,0.131638 0.10751,0.239143 0.24134,0.239143 h 1.92192 c 0.13273,0 0.24133,-0.107505 0.24133,-0.239143 v -1.114538 c 0,-0.131638 -0.1086,-0.238046 -0.24133,-0.238046 h -5.92921 c -0.13274,0 -0.24024,0.106408 -0.24024,0.238046 v 2.706265 c 0,0.132735 0.1075,0.239143 0.24024,0.239143 h 4.40769 c 0.0878,0 0.16016,0.0713 0.16016,0.159063 v 2.070012 c 0,0.08776 -0.0724,0.159063 -0.16016,0.159063 h -2.88508 c -0.0878,0 -0.15906,-0.0713 -0.15906,-0.159063 V 30.79109 c 0,-0.131639 -0.1086,-0.238047 -0.24134,-0.238047 h -1.92192 c -0.13273,0 -0.24133,0.106408 -0.24133,0.238047 v 1.910949 c 0,0.131639 0.1086,0.239143 0.24133,0.239143" transform="translate(-110.79404 -26.440882)"/>
      <path d="m 122.94381,30.653966 c 0,-0.02194 0.0186,-0.03949 0.0406,-0.03949 0.011,0 0.0208,0.0033 0.0274,0.01097 0.008,0.0066 2.24224,2.227979 2.26089,2.247724 0.0132,0.01207 0.0724,0.06801 0.16784,0.06801 h 2.87081 c 0.13273,0 0.24133,-0.107505 0.24133,-0.239144 v -1.909852 c 0,-0.131639 -0.1086,-0.238046 -0.24133,-0.238046 h -2.07111 c -0.0922,0 -0.15139,-0.05156 -0.16565,-0.06582 -0.0296,-0.02962 -1.50067,-1.491901 -1.50726,-1.49958 -0.008,-0.0077 -0.0121,-0.01755 -0.0121,-0.02743 0,-0.01207 0.004,-0.02084 0.0121,-0.02852 0.007,-0.0066 0.68891,-0.68781 0.70098,-0.699877 0.0395,-0.03839 0.0987,-0.06801 0.16893,-0.06801 h 2.07331 c 0.13273,0 0.24024,-0.107505 0.24024,-0.239143 V 26.81122 c 0,-0.131638 -0.10751,-0.238046 -0.24024,-0.238046 h -2.07001 c -0.0954,0 -0.15468,0.05375 -0.16784,0.06692 -0.0121,0.01316 -2.25321,2.241143 -2.26089,2.247725 -0.007,0.0077 -0.0165,0.01207 -0.0274,0.01207 -0.0219,0 -0.0406,-0.01865 -0.0406,-0.04059 v -2.048073 c 0,-0.131638 -0.10751,-0.238046 -0.24024,-0.238046 h -2.32232 c -0.13274,0 -0.24024,0.106408 -0.24024,0.238046 v 1.91095 c 0,0.131638 0.1075,0.239143 0.24024,0.239143 0.0889,0 0.16016,0.07021 0.16016,0.157966 v 1.274698 c 0,0.08776 -0.0713,0.159063 -0.16016,0.159063 -0.13274,0 -0.24024,0.106408 -0.24024,0.238046 v 1.91095 c 0,0.131638 0.1075,0.239143 0.24024,0.239143 h 2.32232 c 0.13273,0 0.24024,-0.107505 0.24024,-0.239143" transform="translate(-110.79404 -26.440882)"/>
      <path d="m 132.31646,32.941182 c 0.13273,0 0.24024,-0.107504 0.24024,-0.239143 V 30.79109 c 0,-0.131639 -0.10751,-0.238047 -0.24024,-0.238047 -0.0878,0 -0.16016,-0.0713 -0.16016,-0.159062 v -0.478286 c 0,-0.08776 0.0724,-0.159063 0.16016,-0.159063 h 0.88088 c 0.0878,0 0.15906,0.0713 0.15906,0.159063 0,0.132735 0.1086,0.239143 0.24134,0.239143 h 1.92521 c 0.13273,0 0.24024,-0.106408 0.24024,-0.239143 v -1.114538 c 0,-0.131639 -0.10751,-0.238046 -0.24024,-0.238046 h -1.92521 c -0.13274,0 -0.24134,0.106407 -0.24134,0.238046 0,0.08886 -0.0713,0.159063 -0.15906,0.159063 l -0.88088,0.0011 c -0.0878,0 -0.16016,-0.0713 -0.16016,-0.16016 v -1.273601 c 0,-0.08776 0.0724,-0.159063 0.16016,-0.159063 h 2.48467 c 0.0889,0 0.16016,0.0713 0.16016,0.159063 v 0.398206 c 0,0.131638 0.1086,0.239143 0.24024,0.239143 h 2.72492 c 0.13273,0 0.24024,-0.107505 0.24024,-0.239143 v -1.114538 c 0,-0.131638 -0.10751,-0.238046 -0.24024,-0.238046 h -7.93231 c -0.13274,0 -0.24024,0.106408 -0.24024,0.238046 v 1.91095 c 0,0.131638 0.1075,0.239143 0.24024,0.239143 0.0889,0 0.16016,0.07021 0.16016,0.157966 v 1.274698 c 0,0.08776 -0.0713,0.159063 -0.16016,0.159063 -0.13274,0 -0.24024,0.106407 -0.24024,0.238046 v 1.910949 c 0,0.131639 0.1075,0.239143 0.24024,0.239143" transform="translate(-110.79404 -26.440882)"/>
    </g>
  </g>
</svg>
